<?xml version="1.0" encoding="utf-8"?><svg xmlns="http://www.w3.org/2000/svg" xmlns:xlink="http://www.w3.org/1999/xlink"><symbol viewBox="0 0 36 36" id="humidity" xmlns="http://www.w3.org/2000/svg">
    <path d="M11.7744 25.7949C11.5888 25.7949 11.4118 25.6862 11.3335 25.5044C11.2735 25.3648 11.2515 25.2618 11.2145 25.0903C11.1972 25.0097 11.1747 24.9048 11.1405 24.7605C11.0801 24.5031 11.2398 24.2445 11.4975 24.1836C11.7532 24.1255 12.0132 24.2829 12.0746 24.5405C12.1102 24.693 12.1341 24.8036 12.1524 24.8889C12.1842 25.0369 12.1927 25.0734 12.2152 25.125C12.3196 25.3686 12.2072 25.6506 11.9641 25.7555C11.9022 25.7817 11.8381 25.7949 11.7744 25.7949Z"/>
    <path d="M17.2653 30.2688C17.2437 30.2688 17.2222 30.2679 17.2002 30.265C15.0855 29.9765 13.2163 28.7753 12.0714 26.9707C11.9294 26.7468 11.9959 26.4507 12.2199 26.3083C12.4429 26.1668 12.7394 26.2324 12.8818 26.4573C13.8745 28.0229 15.4959 29.0639 17.3295 29.314C17.5924 29.3496 17.776 29.5914 17.7404 29.8537C17.7076 30.0945 17.5014 30.2688 17.2653 30.2688Z"/>
    <path d="M18.0107 33.6652C12.3309 33.6652 7.70988 29.0442 7.70988 23.3642C7.70988 19.6993 13.0388 7.78043 14.4001 5.06564C15.309 3.25359 16.5743 2.25577 17.9638 2.25577C18.7654 2.25577 20.2945 2.62024 21.5331 5.06143C22.9685 7.89102 28.3115 19.6595 28.3115 23.3642C28.3115 29.0442 23.6904 33.6652 18.0107 33.6652ZM17.9638 4.1746C17.3562 4.1746 16.6652 4.82903 16.1157 5.92575C14.4484 9.24957 9.62874 20.4082 9.62874 23.3642C9.62874 27.9864 13.3887 31.7464 18.0107 31.7464C22.6327 31.7464 26.3926 27.9864 26.3926 23.3642C26.3926 20.4536 21.7289 9.68898 19.8223 5.92953C19.2564 4.81407 18.5789 4.1746 17.9638 4.1746Z"/>
</symbol><symbol viewBox="0 0 21 21" id="search" xmlns="http://www.w3.org/2000/svg">
    <path d="M16.031 14.6168L20.3137 18.8995L18.8995 20.3137L14.6168 16.031C13.0769 17.263 11.124 18 9 18C4.032 18 0 13.968 0 9C0 4.032 4.032 0 9 0C13.968 0 18 4.032 18 9C18 11.124 17.263 13.0769 16.031 14.6168ZM14.0247 13.8748C15.2475 12.6146 16 10.8956 16 9C16 5.1325 12.8675 2 9 2C5.1325 2 2 5.1325 2 9C2 12.8675 5.1325 16 9 16C10.8956 16 12.6146 15.2475 13.8748 14.0247L14.0247 13.8748Z"/>
</symbol><symbol viewBox="0 0 35 31" id="wind-speed" xmlns="http://www.w3.org/2000/svg">
    <path d="M19.4 18.6H0.200001V21H19.4C21.38 21 23 22.62 23 24.6C23 26.58 21.38 28.2 19.4 28.2C17.42 28.2 15.8 26.58 15.8 24.6H13.4C13.4 27.912 16.088 30.6 19.4 30.6C22.712 30.6 25.4 27.912 25.4 24.6C25.4 21.288 22.712 18.6 19.4 18.6ZM18.2 6.00001C18.2 3.02401 15.776 0.600006 12.8 0.600006C9.824 0.600006 7.4 3.02401 7.4 6.00001H9.8C9.8 5.20436 10.1161 4.44129 10.6787 3.87869C11.2413 3.31608 12.0043 3.00001 12.8 3.00001C13.5956 3.00001 14.3587 3.31608 14.9213 3.87869C15.4839 4.44129 15.8 5.20436 15.8 6.00001C15.8 6.39397 15.7224 6.78408 15.5716 7.14806C15.4209 7.51203 15.1999 7.84275 14.9213 8.12133C14.6427 8.3999 14.312 8.62088 13.948 8.77164C13.5841 8.92241 13.194 9.00001 12.8 9.00001H0.200001V11.4H12.8C15.776 11.4 18.2 8.97601 18.2 6.00001ZM27.056 1.80001C23.084 1.80001 19.856 5.02801 19.856 9.00001H22.256C22.256 6.34801 24.404 4.20001 27.056 4.20001C29.708 4.20001 31.856 6.34801 31.856 9.00001C31.856 11.652 29.708 13.8 27.056 13.8H0.200001V16.2H27.056C31.028 16.2 34.256 12.972 34.256 9.00001C34.256 5.02801 31.016 1.80001 27.056 1.80001Z"/>
</symbol></svg>