<svg version="1.0" xmlns="http://www.w3.org/2000/svg" width="240" height="240" viewBox="0 0 180 180"><path d="M40 30.7c0 1.9-7 102.5-7.5 108.1l-.6 6.2h12l.5-4.3c.9-6.9 3.7-55.7 4.3-75.9.6-17.2 1.2-22.2 2.8-20.6.3.3 2 5.9 3.7 12.4C57 63.1 64 85.4 70.9 106l12.6 37.5 5.1.3c4.9.3 5.2.1 6.2-2.5.5-1.5 5.1-14.3 10.2-28.3s12.6-35.4 16.6-47.5c4-12.1 7.6-22 8.1-22 .4 0 1.1 7.4 1.5 16.5 1 26.5 3.9 80.3 4.4 82.7.4 2.1 1 2.3 6.4 2.3 4.1 0 6-.4 6-1.3 0-.6-1.6-26.4-3.5-57.2-1.9-30.8-3.5-56.1-3.5-56.3 0-.1-3.9-.2-8.7-.2h-8.8l-12.2 33.8c-6.7 18.5-13.8 39.3-15.8 46.2-3.9 13.4-4.8 15.6-6 15.3-.5-.1-2.3-5.5-4.1-12-1.8-6.5-7.8-25.1-13.4-41.3-5.6-16.2-11.1-32.3-12.3-35.8L57.6 30h-8.8c-4.8 0-8.8.3-8.8.7z"/></svg>