<?xml version="1.0" encoding="utf-8"?><svg viewBox="0 0 36 36" xmlns="http://www.w3.org/2000/svg" xmlns:xlink="http://www.w3.org/1999/xlink"><style>:root>svg{display:none}:root>svg:target{display:block}</style><svg fill="none" viewBox="0 0 36 36" id="humidity" xmlns="http://www.w3.org/2000/svg"><path d="M11.774 25.795a.48.48 0 0 1-.44-.29c-.06-.14-.082-.243-.12-.415-.017-.08-.04-.185-.074-.33a.48.48 0 0 1 .935-.22c.035.153.06.264.077.349.032.148.04.184.063.236a.48.48 0 0 1-.44.67ZM17.265 30.269c-.021 0-.043-.001-.065-.004a7.22 7.22 0 0 1-5.129-3.294.48.48 0 1 1 .81-.514 6.258 6.258 0 0 0 4.448 2.857.48.48 0 0 1-.064.955Z" fill="#fff"/><path d="M18.01 33.665c-5.68 0-10.3-4.62-10.3-10.3 0-3.666 5.329-15.585 6.69-18.3.909-1.811 2.174-2.81 3.564-2.81.801 0 2.33.365 3.57 2.806 1.434 2.83 6.777 14.599 6.777 18.303 0 5.68-4.62 10.301-10.3 10.301Zm-.046-29.49c-.608 0-1.299.654-1.848 1.75-1.668 3.325-6.487 14.483-6.487 17.44 0 4.621 3.76 8.381 8.382 8.381s8.382-3.76 8.382-8.382c0-2.91-4.664-13.675-6.57-17.434-.567-1.116-1.244-1.755-1.86-1.755Z" fill="#fff"/></svg><svg fill="none" viewBox="0 0 21 21" id="search" xmlns="http://www.w3.org/2000/svg"><path d="m16.031 14.617 4.283 4.282-1.415 1.415-4.282-4.283A8.96 8.96 0 0 1 9 18c-4.968 0-9-4.032-9-9s4.032-9 9-9 9 4.032 9 9a8.96 8.96 0 0 1-1.969 5.617Zm-2.006-.742A6.977 6.977 0 0 0 16 9c0-3.867-3.133-7-7-7S2 5.133 2 9s3.133 7 7 7a6.977 6.977 0 0 0 4.875-1.975l.15-.15Z" fill="#017A91"/></svg><svg fill="none" viewBox="0 0 35 31" id="wind-speed" xmlns="http://www.w3.org/2000/svg"><path d="M19.4 18.6H.2V21h19.2c1.98 0 3.6 1.62 3.6 3.6s-1.62 3.6-3.6 3.6a3.61 3.61 0 0 1-3.6-3.6h-2.4c0 3.312 2.688 6 6 6s6-2.688 6-6-2.688-6-6-6ZM18.2 6c0-2.976-2.424-5.4-5.4-5.4A5.408 5.408 0 0 0 7.4 6h2.4a3 3 0 1 1 3 3H.2v2.4h12.6c2.976 0 5.4-2.424 5.4-5.4Zm8.856-4.2a7.206 7.206 0 0 0-7.2 7.2h2.4c0-2.652 2.148-4.8 4.8-4.8 2.652 0 4.8 2.148 4.8 4.8 0 2.652-2.148 4.8-4.8 4.8H.2v2.4h26.856c3.972 0 7.2-3.228 7.2-7.2s-3.24-7.2-7.2-7.2Z" fill="#fff"/></svg></svg>