<svg width="128" height="128" fill="none" xmlns="http://www.w3.org/2000/svg"><path d="M98.763 52.987c0 9.563-7.75 17.313-17.313 17.313-9.563 0-17.313-7.75-17.313-17.313 0-9.562 7.75-17.312 17.313-17.312 9.55 0 17.313 7.75 17.313 17.313z" fill="#FBBA22"/><path d="M105.313 73.425c0-10.237-8.163-18.525-18.238-18.525-2.913 0-5.663.712-8.1 1.95-3.9-4.988-9.912-8.188-16.662-8.188-9.425 0-17.413 6.226-20.213 14.85a14.39 14.39 0 00-6.462-1.525c-8.138 0-14.75 6.713-14.75 14.988 0 8.275 6.6 14.988 14.75 14.988H87.95v-.05c9.662-.475 17.363-8.563 17.363-18.488z" fill="#fff"/><path d="M99.7 36.775c.55 0 1.113-.212 1.525-.637l4.338-4.338c.85-.85.85-2.213 0-3.063a2.158 2.158 0 00-3.063 0l-4.338 4.338c-.85.85-.85 2.212 0 3.063.425.425.988.637 1.538.637zm-38.15-.625a2.15 2.15 0 001.525.638 2.13 2.13 0 001.525-.638c.85-.85.85-2.212 0-3.063l-4.35-4.35a2.158 2.158 0 00-3.063 0c-.85.85-.85 2.213 0 3.063l4.363 4.35zm19.888-6.975c1.2 0 2.162-.975 2.162-2.163v-6.5a2.163 2.163 0 00-4.325 0v6.5c0 1.188.975 2.163 2.162 2.163zm32.537 21.65h-6.55a2.164 2.164 0 000 4.325h6.55a2.163 2.163 0 000-4.325zM100.313 57.7a18.98 18.98 0 00.612-4.713c0-10.737-8.737-19.474-19.487-19.474-8.463 0-15.663 5.437-18.338 13-.263-.013-.525-.026-.788-.026-9.374 0-17.724 5.613-21.45 14.175a16.459 16.459 0 00-5.224-.85c-9.325 0-16.913 7.688-16.913 17.15 0 9.45 7.587 17.15 16.913 17.15H87.95c.188 0 .375-.024.55-.075 10.675-.75 18.963-9.725 18.963-20.612a20.736 20.736 0 00-7.15-15.725zM81.437 37.837c8.35 0 15.15 6.8 15.15 15.15 0 .7-.05 1.4-.15 2.075a20.085 20.085 0 00-9.362-2.325c-2.588 0-5.1.488-7.5 1.463-3.25-3.6-7.45-6.05-12.063-7.113 2.313-5.425 7.663-9.25 13.925-9.25zM87.85 89.75c-.112 0-.225.025-.337.037H35.637c-6.937 0-12.575-5.75-12.575-12.825 0-7.062 5.638-12.812 12.576-12.812 1.9 0 3.75.438 5.5 1.3.562.275 1.224.3 1.8.05a2.18 2.18 0 001.224-1.325c2.6-7.987 9.9-13.362 18.163-13.362 5.85 0 11.3 2.687 14.962 7.362a2.165 2.165 0 002.675.6 15.666 15.666 0 017.126-1.712c8.862 0 16.075 7.337 16.075 16.362-.013 8.737-6.738 15.9-15.313 16.325z" fill="#211F1E"/></svg>