<svg width="36" height="36" fill="none" xmlns="http://www.w3.org/2000/svg"><path d="M11.774 25.795a.48.48 0 01-.44-.29c-.06-.14-.082-.243-.12-.415a15.76 15.76 0 00-.074-.33.48.48 0 01.935-.22c.035.153.06.264.077.349.032.148.04.184.063.236a.48.48 0 01-.44.67zm5.491 4.474a.482.482 0 01-.065-.004 7.22 7.22 0 01-5.129-3.294.48.48 0 11.81-.514 6.258 6.258 0 004.448 2.857.48.48 0 01-.064.955z" fill="#fff"/><path d="M18.01 33.665c-5.68 0-10.3-4.62-10.3-10.3 0-3.666 5.329-15.585 6.69-18.3.909-1.811 2.174-2.81 3.564-2.81.801 0 2.33.365 3.57 2.806 1.434 2.83 6.777 14.599 6.777 18.303 0 5.68-4.62 10.301-10.3 10.301zm-.046-29.49c-.608 0-1.299.654-1.848 1.75-1.668 3.325-6.487 14.483-6.487 17.44 0 4.621 3.76 8.381 8.382 8.381s8.382-3.76 8.382-8.382c0-2.91-4.664-13.675-6.57-17.434-.567-1.116-1.244-1.755-1.86-1.755z" fill="#fff"/></svg>