<svg width="36" height="36" fill="none" xmlns="http://www.w3.org/2000/svg"><path d="M20.4 21.6H1.2V24h19.2c1.98 0 3.6 1.62 3.6 3.6s-1.62 3.6-3.6 3.6a3.61 3.61 0 01-3.6-3.6h-2.4c0 3.312 2.688 6 6 6s6-2.688 6-6-2.688-6-6-6zM19.2 9c0-2.976-2.424-5.4-5.4-5.4A5.408 5.408 0 008.4 9h2.4a3 3 0 113 3H1.2v2.4h12.6c2.976 0 5.4-2.424 5.4-5.4zm8.856-4.2a7.206 7.206 0 00-7.2 7.2h2.4c0-2.652 2.148-4.8 4.8-4.8 2.652 0 4.8 2.148 4.8 4.8 0 2.652-2.148 4.8-4.8 4.8H1.2v2.4h26.856c3.972 0 7.2-3.228 7.2-7.2s-3.24-7.2-7.2-7.2z" fill="#fff"/></svg>