<svg width="35" height="31" viewBox="0 0 35 31" fill="none" xmlns="http://www.w3.org/2000/svg">
<path d="M19.4 18.6H0.200001V21H19.4C21.38 21 23 22.62 23 24.6C23 26.58 21.38 28.2 19.4 28.2C17.42 28.2 15.8 26.58 15.8 24.6H13.4C13.4 27.912 16.088 30.6 19.4 30.6C22.712 30.6 25.4 27.912 25.4 24.6C25.4 21.288 22.712 18.6 19.4 18.6ZM18.2 6.00001C18.2 3.02401 15.776 0.600006 12.8 0.600006C9.824 0.600006 7.4 3.02401 7.4 6.00001H9.8C9.8 5.20436 10.1161 4.44129 10.6787 3.87869C11.2413 3.31608 12.0043 3.00001 12.8 3.00001C13.5956 3.00001 14.3587 3.31608 14.9213 3.87869C15.4839 4.44129 15.8 5.20436 15.8 6.00001C15.8 6.39397 15.7224 6.78408 15.5716 7.14806C15.4209 7.51203 15.1999 7.84275 14.9213 8.12133C14.6427 8.3999 14.312 8.62088 13.948 8.77164C13.5841 8.92241 13.194 9.00001 12.8 9.00001H0.200001V11.4H12.8C15.776 11.4 18.2 8.97601 18.2 6.00001ZM27.056 1.80001C23.084 1.80001 19.856 5.02801 19.856 9.00001H22.256C22.256 6.34801 24.404 4.20001 27.056 4.20001C29.708 4.20001 31.856 6.34801 31.856 9.00001C31.856 11.652 29.708 13.8 27.056 13.8H0.200001V16.2H27.056C31.028 16.2 34.256 12.972 34.256 9.00001C34.256 5.02801 31.016 1.80001 27.056 1.80001Z" fill="white"/>
</svg>
